/* XPM */
static char * C:\Users\Najsz\Desktop\Cerberus\share\pixmaps\cerberus32_xpm[] = {
"32 32 283 2",
"  	c None",
". 	c #FD186B",
"+ 	c #FD0760",
"@ 	c #FD015C",
"# 	c #FD005B",
"$ 	c #FD005C",
"% 	c #FD035D",
"& 	c #FD0A62",
"* 	c #FD0D63",
"= 	c #FD055E",
"- 	c #FE015C",
"; 	c #FD0E64",
"> 	c #FC4A8A",
", 	c #FD4486",
"' 	c #FE0861",
") 	c #FC0D64",
"! 	c #FD0861",
"~ 	c #FD055F",
"{ 	c #FF045F",
"] 	c #FD0660",
"^ 	c #FF025D",
"/ 	c #FF015D",
"( 	c #FE005C",
"_ 	c #FC2C76",
": 	c #FCC5D9",
"< 	c #FCB7D0",
"[ 	c #FD196B",
"} 	c #FD025C",
"| 	c #FB1769",
"1 	c #FD176B",
"2 	c #FD0960",
"3 	c #FF015C",
"4 	c #FC90B7",
"5 	c #FCCEDF",
"6 	c #FB79A8",
"7 	c #FD0F65",
"8 	c #FC1368",
"9 	c #FD1568",
"0 	c #FD1F6F",
"a 	c #FC1468",
"b 	c #FF055F",
"c 	c #FC2472",
"d 	c #FC90B6",
"e 	c #FCCDDD",
"f 	c #FC5B95",
"g 	c #FC0E63",
"h 	c #FC0F65",
"i 	c #FD0A61",
"j 	c #FD0E65",
"k 	c #FC1266",
"l 	c #FF005C",
"m 	c #FC065E",
"n 	c #FF045E",
"o 	c #FE055F",
"p 	c #FC4385",
"q 	c #FCA7C6",
"r 	c #FBCBDC",
"s 	c #FB80AB",
"t 	c #FC4989",
"u 	c #FC639A",
"v 	c #FB93B8",
"w 	c #FB82AD",
"x 	c #FD1C6D",
"y 	c #FF1267",
"z 	c #FC1367",
"A 	c #FD065F",
"B 	c #FE025D",
"C 	c #FD2A75",
"D 	c #FC518E",
"E 	c #FC7DAB",
"F 	c #FDA4C3",
"G 	c #FCD6E4",
"H 	c #FCF7F9",
"I 	c #FBDAE6",
"J 	c #FCC7D9",
"K 	c #FCDAE6",
"L 	c #FCDCE8",
"M 	c #FCDEE9",
"N 	c #FCBDD3",
"O 	c #FC2673",
"P 	c #FC1569",
"Q 	c #FD035C",
"R 	c #FC1D6D",
"S 	c #FC6A9E",
"T 	c #FCA9C7",
"U 	c #FDD2E1",
"V 	c #FDECF2",
"W 	c #FDF9FA",
"X 	c #FEFEFE",
"Y 	c #FEFFFF",
"Z 	c #FDFDFD",
"` 	c #FCE4EC",
" .	c #FBAFCA",
"..	c #FC77A6",
"+.	c #FC4888",
"@.	c #FC4486",
"#.	c #FC4988",
"$.	c #FE015D",
"%.	c #FD025D",
"&.	c #FC3C81",
"*.	c #FCA7C5",
"=.	c #FDF0F4",
"-.	c #FEFBFC",
";.	c #FDE9F0",
">.	c #FDCCDD",
",.	c #FDBCD3",
"'.	c #FDBAD2",
").	c #FDC7DA",
"!.	c #FCDCE7",
"~.	c #FDE3EC",
"{.	c #FCC4D8",
"].	c #FC84AF",
"^.	c #FC377E",
"/.	c #FC0D63",
"(.	c #FF0760",
"_.	c #FD2374",
":.	c #FCBDD4",
"<.	c #FEFDFD",
"[.	c #FDEBF1",
"}.	c #FC9ABD",
"|.	c #FC508E",
"1.	c #FD2371",
"2.	c #FE1668",
"3.	c #FE1568",
"4.	c #FD1D6E",
"5.	c #FC397F",
"6.	c #FC659C",
"7.	c #FC9CBE",
"8.	c #FCD8E6",
"9.	c #FCC8DB",
"0.	c #FC8DB5",
"a.	c #FC4386",
"b.	c #FB1A6C",
"c.	c #FB1568",
"d.	c #FD045F",
"e.	c #FBA1C2",
"f.	c #FEFCFD",
"g.	c #FC73A4",
"h.	c #FD0D64",
"i.	c #FC4587",
"j.	c #FC98BC",
"k.	c #FCE6EE",
"l.	c #FC7AA9",
"m.	c #FB4E8C",
"n.	c #FCE3EC",
"o.	c #FEF9FB",
"p.	c #FC91B6",
"q.	c #FC2A75",
"r.	c #FB7EAB",
"s.	c #FC4284",
"t.	c #FE035D",
"u.	c #FD0E63",
"v.	c #FB86B0",
"w.	c #FEFAFB",
"x.	c #FDDEE9",
"y.	c #FC3D81",
"z.	c #FE035E",
"A.	c #FC0A61",
"B.	c #FBA7C5",
"C.	c #FDBED4",
"D.	c #FD0C63",
"E.	c #FD186A",
"F.	c #FBBDD3",
"G.	c #FDB1CC",
"H.	c #FE0E65",
"I.	c #FD1669",
"J.	c #FCC0D5",
"K.	c #FEFDFE",
"L.	c #FDAECB",
"M.	c #FE0D64",
"N.	c #FC1267",
"O.	c #FD1468",
"P.	c #FBB6CE",
"Q.	c #FDB6CF",
"R.	c #FE1066",
"S.	c #FC0760",
"T.	c #FB1669",
"U.	c #FD035E",
"V.	c #FD0B62",
"W.	c #FC9FC0",
"X.	c #FDCADC",
"Y.	c #FF005D",
"Z.	c #FD0B63",
"`.	c #FE045E",
" +	c #FEF5F8",
".+	c #FDF0F5",
"++	c #FC6B9E",
"@+	c #FD1266",
"#+	c #FC387E",
"$+	c #FF0660",
"%+	c #FD3079",
"&+	c #FCC6D9",
"*+	c #FCC8DA",
"=+	c #FC3F83",
"-+	c #FB669B",
";+	c #FBCADC",
">+	c #FC689D",
",+	c #FD0860",
"'+	c #FCE5ED",
")+	c #FDFCFC",
"!+	c #FCBFD4",
"~+	c #FC4F8C",
"{+	c #FD045E",
"]+	c #FC1E6E",
"^+	c #FC508D",
"/+	c #FCA6C4",
"(+	c #FCDBE6",
"_+	c #FCD0E0",
":+	c #FC6299",
"<+	c #FC75A5",
"[+	c #FDDFE9",
"}+	c #FDFEFD",
"|+	c #FDE1EB",
"1+	c #FCB0CB",
"2+	c #FC7CAA",
"3+	c #FC6198",
"4+	c #FD639A",
"5+	c #FC76A7",
"6+	c #FC99BC",
"7+	c #FCC2D6",
"8+	c #FCDFEA",
"9+	c #FCCFDF",
"0+	c #FB7BA9",
"a+	c #FB367D",
"b+	c #FC1769",
"c+	c #FD0B61",
"d+	c #FC5691",
"e+	c #FDB3CD",
"f+	c #FDE5ED",
"g+	c #FDF8FA",
"h+	c #FDF3F6",
"i+	c #FEF4F7",
"j+	c #FDF6F9",
"k+	c #FCE8EF",
"l+	c #FCC9DA",
"m+	c #FC85AF",
"n+	c #FC1B6C",
"o+	c #FD1A6C",
"p+	c #FC7BA9",
"q+	c #FCAAC7",
"r+	c #FDCFDF",
"s+	c #FDE8EF",
"t+	c #FDFBFC",
"u+	c #FCD5E2",
"v+	c #FCB6CF",
"w+	c #FCA0C1",
"x+	c #FBA2C2",
"y+	c #FB8AB3",
"z+	c #FD1267",
"A+	c #FD0C64",
"B+	c #FD1066",
"C+	c #FD2773",
"D+	c #FC94B9",
"E+	c #FCDFE9",
"F+	c #FBC6D8",
"G+	c #FB94B8",
"H+	c #FCA1C2",
"I+	c #FCDDE9",
"J+	c #FBB4CE",
"K+	c #FD1668",
"L+	c #FC669C",
"M+	c #FBC5D8",
"N+	c #FB9BBD",
"O+	c #FC3E82",
"P+	c #FC327B",
"Q+	c #FD075F",
"R+	c #FC528E",
"S+	c #FBC8DA",
"T+	c #FC91B7",
"U+	c #FC357C",
"V+	c #FF025C",
"W+	c #FC0861",
"X+	c #FD045D",
"Y+	c #FB5B94",
"Z+	c #FCE0EA",
"`+	c #FCA5C3",
" @	c #FE1166",
".@	c #FB2573",
"+@	c #FC0961",
"@@	c #FC1E6D",
"#@	c #FB95B9",
"$@	c #FC81AD",
"%@	c #FD1065",
"                                                                ",
"                                                                ",
"                                                                ",
"                                      . + @ # $ % &             ",
"                                    * = - ; > , ' - )           ",
"                            ! ~ { ] ^ / ( _ : < [ - } |         ",
"                        1 2 3 / / / / ( [ 4 5 6 7 - - 8         ",
"                  9 0 a b ( 3 / / / - c d e f g h i ( j         ",
"                k l m n 3 - - - o ; p q r s t u v w x +         ",
"          9 y z A - - ( B 7 C D E F G H I J K L M N O @ P       ",
"        7 Q l - 3 / - R S T U V W X Y Z `  ...+.@.#.+ 3 +       ",
"        = 3 / / $.%.&.*.=.X -.;.>.,.'.).!.~.{.].^./.A - (.      ",
"      _.^ / / / - &.:.<.X [.}.|.1.2.3.4.5.6.7.8.9.0.a.B %.k b.c.",
"        d./ / ( P e.f.X ;.g.k ( ( 3 3 ( ( B h.i.j.k.l.o - - % @ ",
"        & - / - m.n.X o.p.; ( / / / / / / / $.- q.r.s.t./ / 3 3 ",
"        u.- / A v.w.X x.y.( / / / / / / / / / / z.& B 3 / / / / ",
"        A.- / ; B.X X C.9 / / / / / / / / / / / 3 - / / / / / / ",
"      D.( 3 / E.F.X X G.H./ / / / / / / / / / / / / / / / / / / ",
"    I.@ / / / [ J.X K.L.M./ / / / / / / / / / / / / / / / / / l ",
"    N.( / / / O.P.X X Q.R./ / / / / / / / / / / / / / / / / / S.",
"    T.U./ / / V.W.<.X X.1./ / / / / / / / / / / ( ( Y./ / / / Z.",
"      /.- / / `.g. +X .+++- 3 / / / / / / / / ( @+#+O.( / / / $+",
"    [ ~ / / / 3 %+&+X X *+=+- - / / / / / - ( I.-+;+>+o / / / $.",
"    ,+- / / / / o >+'+X )+!+~+9 {+- $.z.& ]+^+/+(+_+:+B / / / / ",
"  + 3 / / / / / - ; <+[+X }+|+1+2+3+4+5+6+7+8+9+0+a+b+- / / / $.",
"  $ / / / / / / / - c+d+e+f+W Z g+h+i+j+k+l+m+&.b+n+@ / / / / %.",
"  l / / / / / / / / - B o+@.p+q+r+s+w.t+'+u+v+w+x+y+z+/ / / - A+",
"  l / / / / / / / / / / ( ( o B+C+t D+E+F+G+H+:.I+J+O ( / 3 3 K+",
"  l / / / / / / / / / / / / / / - ( @+L+M+N+q.[ O+P+o 3 / 3 %   ",
"  l / / / - - / / / / / / / / / / / - Q+R+S+T+U+] ( / / / 3 V+  ",
"  l / ( $ W+X+- / / / / / / / / / / / ( % Y+Z+`+ @/ / / / ( D.  ",
"  @ - %.B+.@+@$./ / / l ( / / / / / / - - @@#@$@%@3 / ( U.&     "};
