/* XPM */
static char * C:\Users\Najsz\Desktop\Cerberus\share\pixmaps\cerberus64_xpm[] = {
"64 64 541 2",
"  	c None",
". 	c #FD2C78",
"+ 	c #FC1367",
"@ 	c #FD0E65",
"# 	c #FE015C",
"$ 	c #FE005C",
"% 	c #FE035F",
"& 	c #FD1066",
"* 	c #FD1368",
"= 	c #FD2070",
"- 	c #FD2673",
"; 	c #FE035E",
"> 	c #FF015C",
", 	c #FF015D",
"' 	c #FF005C",
") 	c #FD1D6E",
"! 	c #FB2470",
"~ 	c #FD166A",
"{ 	c #FE035D",
"] 	c #FE025D",
"^ 	c #FC367D",
"/ 	c #FD3A81",
"( 	c #FD327C",
"_ 	c #FD2F7A",
": 	c #FC327B",
"< 	c #FD2976",
"[ 	c #FD367E",
"} 	c #FD0C63",
"| 	c #FD0A62",
"1 	c #FB548F",
"2 	c #FC8BB3",
"3 	c #FC88B1",
"4 	c #FC7CA9",
"5 	c #FD1C6D",
"6 	c #FE055F",
"7 	c #FD2674",
"8 	c #FF005D",
"9 	c #FE0B63",
"0 	c #FD0B63",
"a 	c #FB5791",
"b 	c #FDEEF3",
"c 	c #FEFFFE",
"d 	c #FEE7EF",
"e 	c #FD307A",
"f 	c #FC1568",
"g 	c #FD035D",
"h 	c #FE015B",
"i 	c #FC73A3",
"j 	c #FEFAFC",
"k 	c #FEFEFE",
"l 	c #FDE0EB",
"m 	c #FD2775",
"n 	c #FC1066",
"o 	c #FD2E79",
"p 	c #FC196C",
"q 	c #FE015D",
"r 	c #FC649A",
"s 	c #FCE5EE",
"t 	c #FCE4ED",
"u 	c #FBD3E3",
"v 	c #FE0660",
"w 	c #FD4B8C",
"x 	c #FD3E83",
"y 	c #FD176B",
"z 	c #FC3E81",
"A 	c #FCCEDF",
"B 	c #FCE3ED",
"C 	c #FB5E95",
"D 	c #FB5993",
"E 	c #FD3B83",
"F 	c #FD387F",
"G 	c #FD4386",
"H 	c #FD1D6F",
"I 	c #FE005B",
"J 	c #FB4687",
"K 	c #FCBFD4",
"L 	c #FDF0F5",
"M 	c #FC6EA1",
"N 	c #FD015B",
"O 	c #FF317D",
"P 	c #FD1B6C",
"Q 	c #FC196B",
"R 	c #FB4386",
"S 	c #FCCBDD",
"T 	c #FDFBFC",
"U 	c #FE075F",
"V 	c #FC1A6B",
"W 	c #FD005A",
"X 	c #FD2A77",
"Y 	c #FD0760",
"Z 	c #FC1368",
"` 	c #FD0B62",
" .	c #FC6299",
"..	c #FBD3E2",
"+.	c #FB84AE",
"@.	c #FC1064",
"#.	c #FD0961",
"$.	c #FC196A",
"%.	c #FA77A6",
"&.	c #FB76A5",
"*.	c #FD2C76",
"=.	c #FD1F6F",
"-.	c #FD3880",
";.	c #FC216E",
">.	c #FB8CB3",
",.	c #FCF4F7",
"'.	c #FCDCE8",
").	c #FA6C9D",
"!.	c #FB2973",
"~.	c #FC4485",
"{.	c #FC699D",
"].	c #FC8DB5",
"^.	c #FCB0CC",
"/.	c #FCCFDF",
"(.	c #FDEDF3",
"_.	c #FEFBFC",
":.	c #FCC8DA",
"<.	c #FB4888",
"[.	c #FD2573",
"}.	c #FF4387",
"|.	c #FC3A7F",
"1.	c #FD2977",
"2.	c #FE156A",
"3.	c #FE045D",
"4.	c #FD1165",
"5.	c #FC4F8D",
"6.	c #FC71A2",
"7.	c #FBC0D5",
"8.	c #FEFDFD",
"9.	c #FBECF2",
"0.	c #FABAD1",
"a.	c #FBA0BF",
"b.	c #FBD8E6",
"c.	c #FDF1F5",
"d.	c #FEFEFF",
"e.	c #FD307B",
"f.	c #FD0860",
"g.	c #FC2874",
"h.	c #FC5691",
"i.	c #FB8DB5",
"j.	c #FCBFD5",
"k.	c #FDE5EE",
"l.	c #FEFAFB",
"m.	c #FEFFFF",
"n.	c #FFFFFF",
"o.	c #FDFAFC",
"p.	c #FDF9FA",
"q.	c #FDF3F7",
"r.	c #FCEDF3",
"s.	c #FDFDFD",
"t.	c #FCA5C3",
"u.	c #FD085F",
"v.	c #FE025E",
"w.	c #FD3981",
"x.	c #FC2A76",
"y.	c #FE045E",
"z.	c #FD0B61",
"A.	c #FC4385",
"B.	c #FC70A2",
"C.	c #FCAAC7",
"D.	c #FDDDE9",
"E.	c #FEF6F9",
"F.	c #FCEEF3",
"G.	c #FCBDD4",
"H.	c #FCABC7",
"I.	c #FC9FC0",
"J.	c #FC89B2",
"K.	c #FC6FA2",
"L.	c #FC5792",
"M.	c #FC4585",
"N.	c #FC4182",
"O.	c #FBACC7",
"P.	c #FF035D",
"Q.	c #FD005B",
"R.	c #FBA3C2",
"S.	c #FCF0F5",
"T.	c #FBBAD2",
"U.	c #FB89B0",
"V.	c #FB518D",
"W.	c #FC1667",
"X.	c #FB387D",
"Y.	c #FC1567",
"Z.	c #FF1167",
"`.	c #FB6499",
" +	c #FCD3E1",
".+	c #FFFFFE",
"++	c #FFFEFE",
"@+	c #FDF4F7",
"#+	c #FCBED4",
"$+	c #FB6FA0",
"%+	c #FC2975",
"&+	c #FD045E",
"*+	c #FE025C",
"=+	c #FF1368",
"-+	c #FD0D65",
";+	c #FB196A",
">+	c #FB94B8",
",+	c #FDF6F8",
"'+	c #FDFAFB",
")+	c #FCBAD2",
"!+	c #FCA5C4",
"~+	c #FC9ABD",
"{+	c #FC96BB",
"]+	c #FCB2CC",
"^+	c #FCD0DF",
"/+	c #FDEAF1",
"(+	c #FEFDFE",
"_+	c #FB87B1",
":+	c #FD0861",
"<+	c #FD0B64",
"[+	c #FD0D63",
"}+	c #FC8EB4",
"|+	c #FDFDFE",
"1+	c #FDE6EE",
"2+	c #FCB8D1",
"3+	c #FB699D",
"4+	c #FC2873",
"5+	c #FD0C62",
"6+	c #FE065E",
"7+	c #FE055E",
"8+	c #FE0860",
"9+	c #FC1969",
"0+	c #FB3A80",
"a+	c #FC72A3",
"b+	c #FCAFCB",
"c+	c #FDD8E5",
"d+	c #FDF5F8",
"e+	c #FBB7CF",
"f+	c #FC4887",
"g+	c #FB2E77",
"h+	c #FA508C",
"i+	c #FC2A77",
"j+	c #FB4487",
"k+	c #FB4788",
"l+	c #FB4B8B",
"m+	c #FD035C",
"n+	c #FB80AC",
"o+	c #FDF8FA",
"p+	c #FCC0D5",
"q+	c #FB4D8B",
"r+	c #FD1266",
"s+	c #FE0C63",
"t+	c #FD1F6E",
"u+	c #FB5A93",
"v+	c #FBAFCA",
"w+	c #FDE9F0",
"x+	c #FCD5E3",
"y+	c #FCB9D2",
"z+	c #FE0F65",
"A+	c #FE0760",
"B+	c #FC2270",
"C+	c #FD1569",
"D+	c #FD2272",
"E+	c #FD0C64",
"F+	c #FB4E8C",
"G+	c #FCE9F0",
"H+	c #FCAFCA",
"I+	c #FB327A",
"J+	c #FB6FA1",
"K+	c #FCC7DA",
"L+	c #FDF6F9",
"M+	c #FDDBE7",
"N+	c #FD206F",
"O+	c #FD2271",
"P+	c #FD055D",
"Q+	c #FB9DBE",
"R+	c #FBA8C5",
"S+	c #FC2B75",
"T+	c #FD1D6D",
"U+	c #FB6B9E",
"V+	c #FCE1EA",
"W+	c #FDE5ED",
"X+	c #FD2873",
"Y+	c #FD1B6E",
"Z+	c #FF377F",
"`+	c #FA3C7F",
" @	c #FBE2EB",
".@	c #FDEBF1",
"+@	c #FC4A89",
"@@	c #FC0E62",
"#@	c #FDF2F6",
"$@	c #FBB7D0",
"%@	c #FC2471",
"&@	c #FF025D",
"*@	c #FD035E",
"=@	c #FD055E",
"-@	c #FA8FB4",
";@	c #FFFEFF",
">@	c #FB8AB1",
",@	c #FC2572",
"'@	c #FA6FA0",
")@	c #FC4586",
"!@	c #FD196B",
"~@	c #FF0A63",
"{@	c #FD1A6C",
"]@	c #FC1B6C",
"^@	c #FAD1E0",
"/@	c #FDE3EC",
"(@	c #FC357B",
"_@	c #FC1F6F",
":@	c #FC2A74",
"<@	c #FD075F",
"[@	c #FF0962",
"}@	c #FC1769",
"|@	c #F94182",
"1@	c #FEFCFD",
"2@	c #FC72A2",
"3@	c #F86699",
"4@	c #FDFCFD",
"5@	c #FD5892",
"6@	c #FD0F66",
"7@	c #FC1B6D",
"8@	c #F880A9",
"9@	c #FEF9FA",
"0@	c #FD508D",
"a@	c #FD2A76",
"b@	c #FD2D78",
"c@	c #FB90B6",
"d@	c #FEF2F7",
"e@	c #FD4487",
"f@	c #FD3C83",
"g@	c #FB94B9",
"h@	c #FEF0F5",
"i@	c #FE4085",
"j@	c #FD327D",
"k@	c #F98BB1",
"l@	c #FEF4F8",
"m@	c #FD4889",
"n@	c #FD2574",
"o@	c #FD1C6E",
"p@	c #FD025C",
"q@	c #F980AA",
"r@	c #FEF9FB",
"s@	c #FD518E",
"t@	c #FD1267",
"u@	c #F96C9E",
"v@	c #FC5690",
"w@	c #FC387E",
"x@	c #FA518C",
"y@	c #FEFBFD",
"z@	c #FC6C9E",
"A@	c #FD0F65",
"B@	c #FC337A",
"C@	c #FD176A",
"D@	c #FD2270",
"E@	c #FCEAF1",
"F@	c #FE005D",
"G@	c #FD2171",
"H@	c #FB99BC",
"I@	c #FC9CBD",
"J@	c #FC2A75",
"K@	c #FB73A2",
"L@	c #FC4386",
"M@	c #FC186A",
"N@	c #FD367D",
"O@	c #FD2473",
"P@	c #FB4183",
"Q@	c #FBE4EC",
"R@	c #FC5791",
"S@	c #FC1F6D",
"T@	c #FCD1DF",
"U@	c #FDF1F6",
"V@	c #FAB3CC",
"W@	c #FD2B77",
"X@	c #FBBAD0",
"Y@	c #FC4384",
"Z@	c #FD045D",
"`@	c #FB3B7F",
" #	c #FB8AB2",
".#	c #FDE1EB",
"+#	c #FD2572",
"@#	c #FD196C",
"##	c #FD357E",
"$#	c #FCD9E5",
"%#	c #FCC4D7",
"&#	c #FB3D81",
"*#	c #FD015C",
"=#	c #FC2D76",
"-#	c #FB8DB4",
";#	c #FCE8EF",
">#	c #FCCADC",
",#	c #FE1669",
"'#	c #FF196D",
")#	c #FBCADB",
"!#	c #FD1668",
"~#	c #FD0E64",
"{#	c #FC2772",
"]#	c #FCC9DB",
"^#	c #FEFEFD",
"/#	c #FBD0E0",
"(#	c #FC7FAB",
"_#	c #FDEBF2",
":#	c #FCC3D7",
"<#	c #FB7BA8",
"[#	c #FB3A7F",
"}#	c #FD1567",
"|#	c #FE065F",
"1#	c #FE0961",
"2#	c #FC2672",
"3#	c #FC4687",
"4#	c #FB77A6",
"5#	c #FCB3CD",
"6#	c #FCDAE6",
"7#	c #FBA6C4",
"8#	c #FB3C80",
"9#	c #FB357B",
"0#	c #FA4887",
"a#	c #FC3980",
"b#	c #FB80AB",
"c#	c #FCFDFD",
"d#	c #FCC8DB",
"e#	c #FBA7C5",
"f#	c #FC9DBE",
"g#	c #FCC6D9",
"h#	c #FCDFEA",
"i#	c #FCD7E4",
"j#	c #FB7AA8",
"k#	c #FC1B6B",
"l#	c #FF3A82",
"m#	c #FCC4D8",
"n#	c #FB70A1",
"o#	c #FC2773",
"p#	c #FC397E",
"q#	c #FDDDE8",
"r#	c #FEF5F9",
"s#	c #FCD8E5",
"t#	c #FAB9CF",
"u#	c #FB93B7",
"v#	c #FB5B94",
"w#	c #FC1B6A",
"x#	c #FD015A",
"y#	c #FB4284",
"z#	c #FD2773",
"A#	c #FB5C95",
"B#	c #FBA2C2",
"C#	c #FCDDE8",
"D#	c #FBDCE6",
"E#	c #FBC9DB",
"F#	c #FBABC8",
"G#	c #FB8BB3",
"H#	c #FB5892",
"I#	c #FA4987",
"J#	c #FA518B",
"K#	c #FAC2D6",
"L#	c #FC5E97",
"M#	c #FD065E",
"N#	c #FC2974",
"O#	c #FCB4CD",
"P#	c #FDDEE9",
"Q#	c #FDF9FB",
"R#	c #FCEFF4",
"S#	c #FDFEFE",
"T#	c #FF1066",
"U#	c #FD0D62",
"V#	c #FD2874",
"W#	c #FC4C8B",
"X#	c #FC77A6",
"Y#	c #FAB6CE",
"Z#	c #FCE1EB",
"`#	c #FD2372",
" $	c #FDF7F9",
".$	c #FBD5E3",
"+$	c #FA6498",
"@$	c #FB2571",
"#$	c #FC4184",
"$$	c #FB659A",
"%$	c #FB8AB3",
"&$	c #FBADC9",
"*$	c #FCCDDE",
"=$	c #FBB8D0",
"-$	c #FC377D",
";$	c #FD1064",
">$	c #FB689D",
",$	c #FCDBE6",
"'$	c #FB7DA9",
")$	c #FC0A5F",
"!$	c #FC1D6C",
"~$	c #FA7EAA",
"{$	c #FB6C9E",
"]$	c #FD1268",
"^$	c #FCF9FB",
"/$	c #FC1D6E",
"($	c #FE0A63",
"_$	c #FC4E8C",
":$	c #FB6198",
"<$	c #FD0660",
"[$	c #FE0560",
"}$	c #FB3F84",
"|$	c #FB4988",
"1$	c #FCD5E4",
"2$	c #FA5B93",
"3$	c #FB5992",
"4$	c #FE0B62",
"5$	c #FE0861",
"6$	c #FB669A",
"7$	c #FCE3EC",
"8$	c #FE1066",
"9$	c #FD2472",
"0$	c #FD186A",
"a$	c #FD035B",
"b$	c #FC7FAA",
"c$	c #FCD0E0",
"d$	c #FE186B",
"e$	c #FD3780",
"f$	c #FD1C6C",
"g$	c #FC2F7A",
"h$	c #FE045F",
"i$	c #FDDAE7",
"j$	c #FE2171",
"k$	c #FC2070",
"l$	c #FD0F64",
"m$	c #FB5D95",
"n$	c #FC84AF",
"o$	c #FC81AD",
"p$	c #FF045F",
"q$	c #FD2B76",
"r$	c #FD4287",
"s$	c #FC3E83",
"t$	c #FC3B82",
"u$	c #FF1D6E",
"v$	c #FD1065",
"w$	c #FD0962",
"x$	c #FE0761",
"y$	c #FC2472",
"z$	c #FC347C",
"A$	c #FD0A63",
"B$	c #FD2774",
"C$	c #FF337C",
"D$	c #FF307B",
"E$	c #FC2E79",
"F$	c #FD186B",
"G$	c #FC1E6E",
"H$	c #FC2372",
"I$	c #FD2474",
"J$	c #FB2672",
"K$	c #FD357D",
"L$	c #FD347E",
"M$	c #FD3C82",
"N$	c #FD2E7A",
"O$	c #FD0D64",
"P$	c #FD347C",
"                                                                      . + @ # # # $ # % & * =                                   ",
"                                                                    - ; # # > , , , , , , ' ; )                                 ",
"                                                                ! ~ # > , , $ { { { ] $ , , > ; ^                               ",
"                                                  / ( _ : <   [ } # , , , , | 1 2 3 4 5 > , , , 6 <                             ",
"                                                7 ] ' 8 ' $ 9 0 # , , , , , $ a b c d e > , , , # f                             ",
"                                                g > , , , , , , , , , , , > h i j k l m # , , , # n                             ",
"                                            o p q , , , , , , , , , , , > # r s k t u ) # , , , , v w                           ",
"                                        x y { $ > , , , , , , , , , , # $ z A k B C D * , , , , , ] E                           ",
"                              F G       H $ > > , , , , , , , , , , q I J K k L M N g $ $ # , , , , O                           ",
"                            P ; ] Q R P $ > , , , , , , , , , , , > # 1 S k T 3 U # # # V W $ , , , X                           ",
"                            Y > # $ Z q > , , , , , , , , , , , $ `  ...k L +.@.$ { #.$.%.&.*.$ 8 > =.                          ",
"                          -.q , , # # , , , , , , , , , > $ $ I ;.>.,.k '.).!.~.{.].^./.(._.:.<.# > # [.                        ",
"                    }.|.1.2.# , , , , , , , , q # # $ 3.4._ 5.6.7.8.k 9.0.a.b.c.T k k d.k k b 1 $ , # )                         ",
"              e.Z > ] # # > , , , , , , # # $ $ f.g.h.i.j.k.l._.m.n.k T o.k k k k k p.q.r.s.t.u.q , , v.w.                      ",
"            x.y.# # , , , , , , , , , $ $ z.A.B.C.D.E.m.k k n.n.n.n.n.k F.G.H.I.J.K.L.M.N.O.r $ , , , > ~                       ",
"            P.> , , , , , , , , , , # Q.A.R.q._.c m.n.n.n.n.n.n.n.n.n.c S.T.U.V.W.h $ $ # X.Y.# , , , , Z.                      ",
"          1.$ , , , , , , , , , , $ z.`. +k .+n.n.n.d.++c c m.m.m.m.m.c k k k @+#+$+%+&+$ *+$ , , , , , =+                      ",
"          -+> , , , , , , , , q # ;+>+,+k n.n.n.n.k k '+'.)+!+~+{+I.]+^+/+(+k k k _.'._+%+I $ :+# , , , Z.                      ",
"          <+, , , , , , , , , # [+}+|+k n.n.n.m.k 1+2+3+4+5+6+3.{ 7+8+9+0+a+b+c+d+k d.|+e+f+g+h+{ , , , 6 i+j+    k+l+          ",
"          <+, , , , , , , , , m+n+o+d.n.n.n.m.k p+q+r+$ $ , > > , > > $ $ # s+t+u+v+'+k k w+x+y+z+> , , # # A+B+C+; y.D+        ",
"          E+, , , , , , , , q F+G+d.n.n.n.n.k H+I+$ > , , , , , , , , , , , , q $ f J+K+L+k k M+N+# , , , , # # # # > # O+      ",
"          = q , , , , , , $ P+Q+k n.n.n.n.k R+S+$ , , , , , , , , , , , , , , , q # # T+U+V+k W+X+$ , , , , , > > , , ' Y+      ",
"          Z+q , , , , , , ' `+ @.+n.n.n.c .@+@# , , , , , , , , , , , , , , , , , , , # @@0.#@$@%@$ , , , , , , , , , > &@      ",
"            *@q , , , , , =@-@k k n.n.;@8.>@&+, , , , , , , , , , , , , , , , , , , , # ,@'@)@!@$ > , , , , , , , , , , ~@      ",
"            {@# , , , , # ]@^@c n.n.n.n./@(@$ , , , , , , , , , , , , , , , , , , , , , $ N $ > > , , , , , , , , , , , ~@      ",
"            _@q , , , , ' :@k.n.n.n.n.k R+<@> , , , , , , , , , , , , , , , , , , , , , > # # , , , , , , , , , , , , , [@      ",
"            }@# , , , , $ |@L n.n.n.n.1@2@h , , , , , , , , , , , , , , , , , , , , , , , , , , , , , , , , , , , , , , >       ",
"          Q # > , , , , # 3@4@n.n.n.n._.5@$ , , , , , , , , , , , , , , , , , , , , , , , , , , , , , , , , , , , , , # 6@      ",
"        7@$ , , , , , , *+8@(+n.n.n.n.9@0@' , , , , , , , , , , , , , , , , , , , , , , , , , , , , , , , , , , , , , q a@      ",
"      b@; > , , , , , , g c@k n.n.n.n.d@e@' , , , , , , , , , , , , , , , , , , , , , , , , , , , , , , , , , , , , , v f@      ",
"      f.$ , , , , , , , { g@k n.n.n.n.h@i@' , , , , , , , , , , , , , , , , , , , , , , , , , , , , , , , , , , , , , D+        ",
"    j@q > , , , , , , , *+k@k n.n.n.n.l@m@' , , , , , , , , , , , , , , , , , , , , , , , , , , , , , , , , , , , # > n@        ",
"    o@, , , , , , , , , p@q@(+n.n.n.n.r@s@' , , , , , , , , , , , , , , , , , , , , , , , , , , , , , , , , , , , # t@          ",
"    = $ , , , , , , , , # u@8.n.n.n.n._.v@$ , , , , , , , , , , , , , , , , , , , , , , , , , , , , , , , , , , , v.w@          ",
"    o q , , , , , , , , $ x@L+n.n.n.n.y@z@h , , , , , , , , , , , , , , , , , , , , , , , , , , , , , , , , , , , A@            ",
"      6@$ , , , , , , , $ B@/+n.n.n.n.k !+u., , , , , , , , , , , , , , , , , , , , , , q # 8 , , , , , , , , , , C@            ",
"        ~ # , , , , , , # D@M+++n.n.n.k E@~.$ , , , , , , , , , , , , , , , , , , , , F@I h $ , , , , , , , , , , , G@          ",
"        ~ # , , , , , , , #.H@k n.n.n.n.k I@5+> , , , , , , , , , , , , , , , , , , , # J@K@L@M@$ ' , , , , , , , , ; N@        ",
"      O@$ , , , , , , , , > P@Q@.+n.n.n.k c.R@$ > , , , , , , , , , , , , , , , , , q $ S@T@U@V@t+' , , , , , , , , q .         ",
"    W@; # , , , , , , , , , P+H@k n.n.n.n.k X@Y@$ > , , , , , , , , , , , , , > > $ Z@`@ #o+k .#+## , , , , , , , , , @#        ",
"  ##& # , , , , , , , , , , > A.$#c n.n.n.n.k %#&#I # , , , , , , , , , , , # # *#=#-#;#8.k k >#,## , , , , , , , , , '#        ",
"  C@> , , , , , , , , , , , , h 3+L c n.n.n.k k )#R@!## $ $ , , , , , ' $ # ~#{#&.]#^#k k .#/#R.A+, , , , , , , , , , O+        ",
"O+> > , , , , , , , , , , , , # Z@(#o+k .+n.n.k k _#:#<#[#}#|#7+|#1#4.2#3#4#5#6#T ++++T 7#8#9#0## , , , , , , , , , q a#        ",
"q > , , , , , , , , , , , , , > # u.b#(.k n.n.n.c k k c#G+d#e#f#!+5#g#h#U@s.k k k j i#j#k## $ =@# , , , , , , , , , ; l#        ",
"# , , , , , , , , , , , , , , , , # P+R@:.k ;@n.n.n.n.c k c c c c m.d.k k k k L+m#n#o#*+# y.# # , , , , , , , , , , &@          ",
", , , , , , , , , , , , , , , , , , # # p#g@q#r#m.m.k n.n.n.n.n.n.n.n._.s#t#u#v#w#x#$ $ { y#~#> , , , , , , , , , ' !@          ",
", , , , , , , , , , , , , , , , , , , , $ |#z#A#B#C#L+k k ++n.n.n.n.n.k /+D#E#F#G#B.H#I#J#K#L## , , , , , , , , , q e.          ",
", , , , , , , , , , , , , , , , , , , , , > $ $ M#N#1 +.O#P#o+1@n.;@k '+_.k k k k k Q#,.R#S#~+m+, , , , , , , , > T#            ",
", , , , , , , , , , , , , , , , , , , , , , , , # $ $ *+U#V#W#X#>#8.k ;#Y#a.s#S.j k m.k k d.Z#y#$ , , , , , , , # `#            ",
", , , , , , , , , , , , , , , , , , , , , , , , , , , , > # $ I N#>+ $k .$+$@$#$$$%$&$*$U@'+=$-$$ , , , , , , > |               ",
", , , , , , , , , , , , , , , , , , , , , , , , , , , , , , , , $ ;$>$,$k E@'$)$$ ] 1#!$~${$B+$ > , , , , , , > ]$              ",
", , , , , , , , , , , , , , , , , , , , , , , , , , , , , , , , , # h C x+k ^$n+3.# # # /$I # , , , , , , , , > ($              ",
", , , , , , , , , , , , , , , , , , , , , , , , , , , , , , , , , , q N _$K+k /+:$W <$$ $ , , , , , , , , , , , [$}$            ",
", , , , , , , , , , , , , , , , , , , , , , , , , , , , , , , , , , , # h |$i#d.1$2$3$4$, , , , , , , , , , , > 5$              ",
", , , , , , , , # # , , , , , , , , , , , , , , , , , , , , , , , , , , $ Q.6$.@k 7$:#8$, , , , , , , , , , , # 9$              ",
", , , , , , F@$ 0$r+# , , , , , , , , , , , , , , , , , , , , , , , , , # # a$b$1@k c$d$, , , , , , , , , , # 6 e$              ",
", , , , , $ $ f$  g$h$, , , , , , , , , , , , , , , , , , , , , , , , , , > I 6$#@c i$j$> , , , , , , , , $ y.m                 ",
"# , , , # # /$    k$# , , , , , , , , , , , , , , , , , , , , , , , , , , # l$m$n$o$M t@> , , , , , , q # Y V#                  ",
"E+q q q A@*.      p$> , , , , , , , , , ' $ , , , , , , , , , , , , , # # , # ] ] *+# ' , , , , , $ q 6@q$r$                    ",
"  / s$t$          u$, , , , , , , $ # # } v$q , , , , , , > $ $ > $ q w$} # # > , > > , , $ $ # x$y$z$                          ",
"                  A$> , , , # # q w$- B$  k+6 > , , , , , # Y . C$D$q$    E$F$# $ > > > # 1#G$H$w.                              ",
"                  I$q # # # q f b@          !@# > , , , # ] J$                K$[.L$M$M$M$                                      ",
"                    N$~#Z.O$P$                !@*@# , # # o@                                                                    ",
"                                                y$# # F@=                                                                       "};
