/* XPM */
static char * C:\Users\Najsz\Desktop\Cerberus\share\pixmaps\cerberus16_xpm[] = {
"16 16 113 2",
"  	c None",
". 	c #FD0760",
"+ 	c #FC0960",
"@ 	c #FC337B",
"# 	c #FC0F65",
"$ 	c #FD055F",
"% 	c #FD035D",
"& 	c #FC045D",
"* 	c #FC3B81",
"= 	c #FB76A6",
"- 	c #FB2572",
"; 	c #FC065F",
"> 	c #FD065F",
", 	c #FC0A61",
"' 	c #FD1C6D",
") 	c #FC508E",
"! 	c #FB91B7",
"~ 	c #FB7EAB",
"{ 	c #FB5590",
"] 	c #FB1B6C",
"^ 	c #FD055E",
"/ 	c #FD035C",
"( 	c #FC1266",
"_ 	c #FC5591",
": 	c #FC8DB5",
"< 	c #FCAECA",
"[ 	c #FCCEDE",
"} 	c #FBD0DF",
"| 	c #FB9CBE",
"1 	c #FB6C9F",
"2 	c #FC1B6C",
"3 	c #FF0962",
"4 	c #FD005C",
"5 	c #FD1166",
"6 	c #FC80AD",
"7 	c #FCD4E2",
"8 	c #FC9EBF",
"9 	c #FC6299",
"0 	c #FD5490",
"a 	c #FC6A9E",
"b 	c #FC81AD",
"c 	c #FB7BA9",
"d 	c #FC2C76",
"e 	c #FD075F",
"f 	c #FD0860",
"g 	c #FD025D",
"h 	c #FB4889",
"i 	c #FCD9E6",
"j 	c #FC9ABD",
"k 	c #FC1D6D",
"l 	c #FE025D",
"m 	c #FE015C",
"n 	c #FD045E",
"o 	c #FD1569",
"p 	c #FB4E8C",
"q 	c #FC2F79",
"r 	c #FD025C",
"s 	c #FF015C",
"t 	c #FC75A5",
"u 	c #FDE4ED",
"v 	c #FC5792",
"w 	c #FE015D",
"x 	c #FF015D",
"y 	c #FF005C",
"z 	c #FE0760",
"A 	c #FC82AE",
"B 	c #FDE3EC",
"C 	c #FD4889",
"D 	c #FE005C",
"E 	c #FC035D",
"F 	c #FE045E",
"G 	c #FC6EA1",
"H 	c #FDE5EE",
"I 	c #FC659B",
"J 	c #FE035D",
"K 	c #FD0E64",
"L 	c #FD0861",
"M 	c #FF025D",
"N 	c #FD397F",
"O 	c #FCC8DA",
"P 	c #FCB7CF",
"Q 	c #FC3C81",
"R 	c #FD0C63",
"S 	c #FE0861",
"T 	c #FD1066",
"U 	c #FC357D",
"V 	c #FB70A2",
"W 	c #FC3A80",
"X 	c #FC5A94",
"Y 	c #FCBDD3",
"Z 	c #FCBBD2",
"` 	c #FC94B9",
" .	c #FC8BB4",
"..	c #FC98BC",
"+.	c #FB93B8",
"@.	c #FC1A6B",
"#.	c #FD015C",
"$.	c #FD005B",
"%.	c #FC2B76",
"&.	c #FC5C95",
"*.	c #FC88B1",
"=.	c #FBCEDD",
"-.	c #FB9ABC",
";.	c #FB7AA8",
">.	c #FC2170",
",.	c #FD035E",
"'.	c #FF005B",
").	c #FD0961",
"!.	c #FC2F78",
"~.	c #FB77A6",
"{.	c #FB74A4",
"].	c #FC377E",
"^.	c #FD0A62",
"                                ",
"                                ",
"                                ",
"                . + @ #         ",
"            $ % & * = - ;       ",
"        > $ , ' ) ! ~ { ]       ",
"    ^ / ( _ : < [ } | 1 2 3     ",
"  . 4 5 6 7 8 9 0 a b c d e     ",
"  f g h i j k l m n o p q r s   ",
"  > ^ t u v w x x x m n % m y   ",
"  g z A B C w x x x x D D x s   ",
"  E F G H I J m x m D K L D M   ",
"  % w N O P Q R S T U V W l x   ",
"M s m . X Y Z `  ...+.1 @.m #.  ",
"$.x x m $ %.&.*.Z =.-.;.>.y ,.  ",
"'.y s m m D l ).!.~.{.].^.'..   "};
